<svg width="219" height="243" viewBox="0 0 219 243" fill="none" xmlns="http://www.w3.org/2000/svg">
<path d="M217.16 202.257C218.897 207.258 218.48 212.583 216.165 217.214C214.497 220.594 212.113 223.211 209.195 225.549C205.676 228.327 201.3 230.689 196.021 232.958C189.724 235.644 182.037 238.168 178.518 239.094C169.511 241.432 160.852 242.914 152.077 242.983C139.528 243.099 128.715 240.136 121.028 232.564C117.046 233.051 113.017 233.329 108.966 233.329C105.122 233.329 101.325 233.097 97.5511 232.634C89.8411 240.159 79.0749 243.099 66.5722 242.983C57.7972 242.914 49.1379 241.432 40.1082 239.094C36.6121 238.168 28.9253 235.644 22.6276 232.958C17.3487 230.689 12.9728 228.327 9.47666 225.549C6.53622 223.211 4.15145 220.594 2.48442 217.214C0.192264 212.583 -0.247645 207.258 1.51199 202.257C-0.108727 198.437 -0.525483 194.061 0.747939 189.222C1.32677 187.022 2.27604 184.985 3.48001 183.179C3.22532 182.23 3.01694 181.257 2.87803 180.192C1.99821 173.848 4.19775 168.06 8.34216 163.568C10.3796 161.322 12.5792 159.771 14.8713 158.775C13.1812 151.598 12.3013 144.212 12.3013 136.664C12.3013 83.2732 55.5745 40 108.966 40C127.303 40 144.459 45.0937 159.092 53.9845C161.732 55.6052 164.325 57.3417 166.802 59.1939C168.029 60.1201 169.256 61.0693 170.437 62.0649C171.641 63.0373 172.822 64.0561 173.956 65.098C177.383 68.2236 180.601 71.5808 183.542 75.1696C184.537 76.3504 185.487 77.5775 186.413 78.8278C188.288 81.3052 190.025 83.8752 191.622 86.5378C194.053 90.5201 196.183 94.6877 198.036 99.0173C199.263 101.911 200.328 104.875 201.277 107.908C202.689 112.446 203.778 117.123 204.518 121.939C204.75 123.536 204.958 125.157 205.12 126.778C205.445 130.019 205.63 133.307 205.63 136.664C205.63 144.12 204.75 151.436 203.106 158.498C205.653 159.493 208.061 161.114 210.307 163.568C214.451 168.06 216.651 173.871 215.771 180.215C215.632 181.257 215.424 182.23 215.169 183.179C216.373 184.985 217.322 187.022 217.901 189.222C219.174 194.061 218.758 198.437 217.16 202.257Z" fill="white"/>
<path d="M108.241 217.121C152.676 217.121 188.698 181.099 188.698 136.664C188.698 92.2291 152.676 56.2072 108.241 56.2072C63.8055 56.2072 27.7836 92.2291 27.7836 136.664C27.7836 181.099 63.8055 217.121 108.241 217.121Z" fill="#FFD21E"/>
<path d="M188.698 136.664C188.698 92.229 152.676 56.2072 108.241 56.2072C63.8054 56.2072 27.7836 92.229 27.7836 136.664C27.7836 181.099 63.8054 217.121 108.241 217.121C152.676 217.121 188.698 181.099 188.698 136.664ZM18.5223 136.664C18.5223 87.1142 58.6906 46.9459 108.241 46.9459C157.791 46.9459 197.959 87.1142 197.959 136.664C197.959 186.214 157.791 226.383 108.241 226.383C58.6906 226.383 18.5223 186.214 18.5223 136.664Z" fill="#FF9D00"/>
<path d="M134.382 114.765C137.333 115.806 138.507 121.872 141.487 120.288C147.133 117.286 149.276 110.276 146.274 104.631C143.273 98.9861 136.263 96.8431 130.618 99.8446C124.973 102.846 122.83 109.856 125.831 115.501C127.248 118.165 131.745 113.833 134.382 114.765Z" fill="#32343D"/>
<path d="M79.8402 114.765C76.8896 115.806 75.7156 121.872 72.7349 120.288C67.0897 117.286 64.9466 110.276 67.9482 104.631C70.9498 98.9861 77.9594 96.8431 83.6046 99.8446C89.2498 102.846 91.3928 109.856 88.3912 115.501C86.9745 118.165 82.4778 113.833 79.8402 114.765Z" fill="#32343D"/>
<path d="M107.662 170.327C130.418 170.327 137.761 150.038 137.761 139.619C137.761 134.204 134.121 135.909 128.291 138.795C122.904 141.462 115.646 145.139 107.662 145.139C91.0388 145.139 77.563 129.2 77.563 139.619C77.563 150.038 84.906 170.327 107.662 170.327Z" fill="#32343D"/>
<mask id="mask0" mask-type="alpha" maskUnits="userSpaceOnUse" x="77" y="136" width="61" height="35">
<path d="M107.662 170.327C130.418 170.327 137.761 150.038 137.761 139.619C137.761 134.204 134.121 135.909 128.291 138.795C122.904 141.462 115.646 145.139 107.662 145.139C91.0388 145.139 77.563 129.2 77.563 139.619C77.563 150.038 84.906 170.327 107.662 170.327Z" fill="white"/>
</mask>
<g mask="url(#mask0)">
<path d="M108.241 193.968C119.331 193.968 128.321 184.978 128.321 173.888C128.321 165.25 122.867 157.885 115.215 155.051C114.933 154.947 114.648 154.849 114.361 154.757C112.431 154.14 110.375 160.772 108.241 160.772C106.246 160.772 104.32 154.098 102.502 154.639C94.208 157.108 88.1601 164.792 88.1601 173.888C88.1601 184.978 97.1505 193.968 108.241 193.968Z" fill="#FF323D"/>
</g>
<g style="mix-blend-mode:multiply">
<path d="M162.651 125.667C166.807 125.667 170.175 122.298 170.175 118.142C170.175 113.986 166.807 110.617 162.651 110.617C158.495 110.617 155.126 113.986 155.126 118.142C155.126 122.298 158.495 125.667 162.651 125.667Z" fill="#FFD21E"/>
</g>
<g style="mix-blend-mode:multiply">
<path d="M54.9884 125.667C59.1442 125.667 62.5131 122.298 62.5131 118.142C62.5131 113.986 59.1442 110.617 54.9884 110.617C50.8325 110.617 47.4636 113.986 47.4636 118.142C47.4636 122.298 50.8325 125.667 54.9884 125.667Z" fill="#FFD21E"/>
</g>
<path d="M39.5037 151.135C35.7552 151.135 32.405 152.675 30.0688 155.467C28.6241 157.196 27.1145 159.984 26.9918 164.159C25.4197 163.707 23.9078 163.455 22.4954 163.455C18.9067 163.455 15.6653 164.83 13.3731 167.328C10.428 170.535 9.11989 174.476 9.68946 178.419C9.96035 180.296 10.5878 181.979 11.5255 183.538C9.54822 185.138 8.09189 187.365 7.38804 190.044C6.83699 192.144 6.27206 196.517 9.22176 201.023C9.03422 201.317 8.85826 201.623 8.69387 201.935C6.92034 205.302 6.80689 209.106 8.37204 212.648C10.7452 218.017 16.6423 222.247 28.0939 226.788C35.2181 229.612 41.7357 231.418 41.7936 231.435C51.2123 233.877 59.7303 235.118 67.1046 235.118C80.6584 235.118 90.3619 230.967 95.9464 222.78C104.934 209.597 103.649 197.538 92.0196 185.916C85.5831 179.484 81.3044 170 80.413 167.919C78.6163 161.755 73.8653 154.904 65.9677 154.904H65.9654C65.3009 154.904 64.6295 154.957 63.9673 155.062C60.5082 155.606 57.4844 157.597 55.3242 160.593C52.9927 157.694 50.7284 155.388 48.6793 154.087C45.5907 152.128 42.5044 151.135 39.5037 151.135ZM39.5037 160.396C40.6845 160.396 42.127 160.899 43.7176 161.908C48.6562 165.041 58.186 181.422 61.6751 187.793C62.8444 189.928 64.8425 190.831 66.6415 190.831C70.2117 190.831 72.9993 187.282 66.9679 182.771C57.8989 175.985 61.0801 164.892 65.4097 164.209C65.5996 164.179 65.7871 164.165 65.9677 164.165C69.9038 164.165 71.6403 170.949 71.6403 170.949C71.6403 170.949 76.7293 183.73 85.4719 192.466C94.2145 201.204 94.666 208.217 88.2943 217.561C83.9484 223.933 75.6295 225.857 67.1046 225.857C58.2624 225.857 49.1979 223.787 44.1181 222.47C43.8681 222.405 12.9749 213.678 16.8878 206.251C17.5453 205.003 18.6289 204.503 19.9926 204.503C25.503 204.503 35.526 212.704 39.8348 212.704C40.798 212.704 41.4764 212.294 41.7542 211.294C43.5902 204.707 13.8385 201.937 16.346 192.396C16.7882 190.708 17.9875 190.023 19.6731 190.025C26.9547 190.025 43.2916 202.831 46.7159 202.831C46.9775 202.831 47.1651 202.755 47.267 202.593C48.9826 199.824 48.0426 197.89 35.9497 190.572C23.8568 183.251 15.3689 178.847 20.1963 173.591C20.752 172.985 21.5392 172.716 22.4954 172.716C29.8373 172.718 47.1836 188.504 47.1836 188.504C47.1836 188.504 51.8652 193.373 54.6968 193.373C55.3474 193.373 55.9008 193.116 56.2758 192.482C58.2832 189.097 37.6306 173.445 36.466 166.988C35.6765 162.612 37.0194 160.396 39.5037 160.396Z" fill="#FF9D00"/>
<path d="M88.294 217.561C94.6657 208.216 94.2142 201.203 85.4716 192.465C76.729 183.73 71.6399 170.949 71.6399 170.949C71.6399 170.949 69.739 163.526 65.4094 164.209C61.0798 164.892 57.9009 175.985 66.9699 182.771C76.039 189.555 65.164 194.165 61.6748 187.793C58.1856 181.421 48.6581 165.041 43.7173 161.908C38.7787 158.775 35.3011 160.53 36.4657 166.988C37.6303 173.445 58.2852 189.097 56.2755 192.484C54.2658 195.869 47.1833 188.504 47.1833 188.504C47.1833 188.504 25.0211 168.335 20.196 173.591C15.3709 178.847 23.8565 183.25 35.9494 190.571C48.0446 197.89 48.9823 199.823 47.2666 202.593C45.5487 205.362 18.8531 182.855 16.3456 192.396C13.8405 201.937 43.5899 204.706 41.7539 211.293C39.9178 217.883 20.798 198.826 16.8874 206.251C12.9746 213.678 43.8678 222.405 44.1178 222.469C54.0968 225.058 79.4402 230.543 88.294 217.561Z" fill="#FFD21E"/>
<path d="M178.135 151.135C181.884 151.135 185.234 152.675 187.57 155.467C189.015 157.196 190.525 159.984 190.647 164.159C192.219 163.707 193.731 163.455 195.144 163.455C198.732 163.455 201.974 164.83 204.266 167.328C207.211 170.535 208.519 174.476 207.95 178.419C207.679 180.296 207.051 181.979 206.114 183.538C208.091 185.138 209.547 187.365 210.251 190.044C210.802 192.144 211.367 196.517 208.417 201.023C208.605 201.317 208.781 201.623 208.945 201.935C210.719 205.302 210.832 209.106 209.267 212.648C206.894 218.017 200.997 222.247 189.545 226.788C182.421 229.612 175.903 231.418 175.846 231.435C166.427 233.877 157.909 235.118 150.535 235.118C136.981 235.118 127.277 230.967 121.693 222.78C112.705 209.597 113.99 197.538 125.619 185.916C132.056 179.484 136.335 170 137.226 167.919C139.023 161.755 143.774 154.904 151.671 154.904H151.674C152.338 154.904 153.01 154.957 153.672 155.062C157.131 155.606 160.155 157.597 162.315 160.593C164.646 157.694 166.911 155.388 168.96 154.087C172.048 152.128 175.135 151.135 178.135 151.135ZM178.135 160.396C176.955 160.396 175.512 160.899 173.921 161.908C168.983 165.041 159.453 181.422 155.964 187.793C154.795 189.928 152.797 190.831 150.998 190.831C147.427 190.831 144.64 187.282 150.671 182.771C159.74 175.985 156.559 164.892 152.229 164.209C152.039 164.179 151.852 164.165 151.671 164.165C147.735 164.165 145.999 170.949 145.999 170.949C145.999 170.949 140.91 183.73 132.167 192.466C123.425 201.204 122.973 208.217 129.345 217.561C133.691 223.933 142.01 225.857 150.535 225.857C159.377 225.857 168.441 223.787 173.521 222.47C173.771 222.405 204.664 213.678 200.751 206.251C200.094 205.003 199.01 204.503 197.646 204.503C192.136 204.503 182.113 212.704 177.804 212.704C176.841 212.704 176.163 212.294 175.885 211.294C174.049 204.707 203.801 201.937 201.293 192.396C200.851 190.708 199.652 190.023 197.966 190.025C190.684 190.025 174.348 202.831 170.923 202.831C170.662 202.831 170.474 202.755 170.372 202.593C168.656 199.824 169.596 197.89 181.689 190.572C193.782 183.251 202.27 178.847 197.443 173.591C196.887 172.985 196.1 172.716 195.144 172.716C187.802 172.718 170.455 188.504 170.455 188.504C170.455 188.504 165.774 193.373 162.942 193.373C162.292 193.373 161.738 193.116 161.363 192.482C159.356 189.097 180.008 173.445 181.173 166.988C181.963 162.612 180.62 160.396 178.135 160.396Z" fill="#FF9D00"/>
<path d="M129.345 217.561C122.974 208.216 123.425 201.203 132.168 192.465C140.91 183.73 145.999 170.949 145.999 170.949C145.999 170.949 147.9 163.526 152.23 164.209C156.559 164.892 159.738 175.985 150.669 182.771C141.6 189.555 152.475 194.165 155.964 187.793C159.454 181.421 168.981 165.041 173.922 161.908C178.861 158.775 182.338 160.53 181.174 166.988C180.009 173.445 159.354 189.097 161.364 192.484C163.373 195.869 170.456 188.504 170.456 188.504C170.456 188.504 192.618 168.335 197.443 173.591C202.268 178.847 193.783 183.25 181.69 190.571C169.595 197.89 168.657 199.823 170.373 202.593C172.091 205.362 198.786 182.855 201.294 192.396C203.799 201.937 174.049 204.706 175.885 211.293C177.721 217.883 196.841 198.826 200.752 206.251C204.665 213.678 173.771 222.405 173.521 222.469C163.542 225.058 138.199 230.543 129.345 217.561Z" fill="#FFD21E"/>
<path fill-rule="evenodd" clip-rule="evenodd" d="M172 36.6277H41V68.0904V68.5745H41.0235C41.9616 78.2419 70.9173 86 106.5 86C142.083 86 171.038 78.2419 171.977 68.5745H172V68.0904V36.6277Z" fill="black"/>
<path fill-rule="evenodd" clip-rule="evenodd" d="M13 39.0479L108.281 66.6383L207 39.0479L206.835 39H207V28H168.811L108.281 10.4894L49.8596 28H13V39H13.1597L13 39.0479Z" fill="#2E2E2E"/>
<path d="M108.281 56L13 28.4828L108.281 0L207 28.4828L108.281 56Z" fill="#464646"/>
<path d="M41 47C30.6667 59.5 15.5 89.1 37.5 107.5C59.5 125.9 64.3333 143.833 64 150.5" stroke="black" stroke-width="4"/>
<path d="M64.1665 151.081L62.9264 200.316M64.1665 151.081L59.7293 200.235M64.1665 151.081L66.7629 200.413" stroke="#FF0000" stroke-width="3.83774"/>
</svg>
